# xmcd CD database file
#
# Track frame offsets:
#	150
#	14647
#	27347
#	42207
#	53510
#	68140
#	82335
#	94615
#	108050
#	119727
#	128860
#	149355
#
# Disc length: 2168 seconds
#
# Revision: 1
# Processed by: cddbd v1.5.1PL0 Copyright (c) Steve Scherf et al.
# Submitted via: CDex 1.50beta8
#
DISCID=a508760c
DTITLE=Breno sauer Quarteto - 4 NA BOSSA
DYEAR=1965
DGENRE=Jazz
TTITLE0=Voce
TTITLE1=Essa E Nossa
TTITLE2=Blues For Mother
TTITLE3=Estamos Ai
TTITLE4=Olhou Pra Mim
TTITLE5=Sonho De Maria
TTITLE6=Sammbossa
TTITLE7=Amanha
TTITLE8=My Many Shely
TTITLE9=Baiaozinho
TTITLE10=Amor Em Paz
TTITLE11=Terra Seca
EXTD=YEAR: 1965
EXTT0=
EXTT1=
EXTT2=
EXTT3=
EXTT4=
EXTT5=
EXTT6=
EXTT7=
EXTT8=
EXTT9=
EXTT10=
EXTT11=
PLAYORDER=
